<?xml version="1.0" standalone="no"?>
<!DOCTYPE svg PUBLIC "-//W3C//DTD SVG 20010904//EN"
 "http://www.w3.org/TR/2001/REC-SVG-20010904/DTD/svg10.dtd">
<svg version="1.0" xmlns="http://www.w3.org/2000/svg"
 width="900.000000pt" height="280.000000pt" viewBox="0 0 900.000000 280.000000"
 preserveAspectRatio="xMidYMid meet">

<g transform="translate(0.000000,280.000000) scale(0.100000,-0.100000)"
fill="#000000" stroke="none">
<path d="M816 2755 c-46 -16 -98 -52 -124 -85 -17 -22 -567 -1013 -638 -1150
-23 -45 -28 -68 -28 -125 0 -84 -28 -28 363 -735 159 -289 304 -540 320 -557
17 -18 50 -43 74 -55 l42 -23 675 0 c673 0 675 0 715 22 22 12 56 39 76 60 22
22 159 260 337 583 382 695 346 621 346 705 0 84 36 10 -346 705 -178 323
-315 561 -337 583 -20 21 -54 48 -76 60 -40 22 -44 22 -700 24 -543 2 -667 0
-699 -12z m744 -168 c13 -7 35 -28 47 -46 l23 -34 -2 -1128 -3 -1129 -33 -32
c-29 -30 -38 -33 -92 -33 -54 0 -63 3 -92 33 l-33 32 -3 1129 -2 1128 23 34
c27 41 60 59 107 59 19 0 46 -6 60 -13z m-548 -407 c24 -7 48 -24 65 -47 l28
-36 3 -661 c2 -364 0 -685 -3 -714 -16 -134 -168 -174 -242 -63 l-23 34 0 697
0 697 23 34 c20 31 77 69 102 69 6 0 27 -5 47 -10z m1085 -16 c13 -8 33 -29
43 -47 19 -31 20 -56 20 -728 l0 -696 -23 -34 c-74 -111 -226 -71 -242 63 -3
29 -5 350 -3 714 l3 661 28 36 c42 56 117 69 174 31z m-1582 -414 c62 -38 65
-57 65 -360 0 -229 -3 -277 -16 -306 -49 -103 -194 -95 -240 13 -20 47 -20
552 0 591 16 30 53 66 76 75 33 12 84 6 115 -13z m2121 -11 c53 -49 54 -58 54
-344 0 -286 -3 -308 -53 -354 -37 -34 -106 -40 -150 -12 -64 39 -67 57 -67
363 0 302 3 316 65 359 41 27 115 22 151 -12z"/>
<path d="M3240 2061 l-85 -6 5 -190 c3 -104 5 -260 5 -345 0 -85 -2 -243 -5
-350 l-5 -195 148 -3 147 -3 0 253 c0 142 4 248 9 242 4 -5 41 -85 81 -179
131 -308 139 -322 168 -328 54 -10 60 -2 169 264 57 140 109 259 115 264 7 7
9 -73 6 -250 l-3 -260 155 0 155 0 -1 95 c-1 120 -1 787 0 900 l1 85 -141 2
c-104 2 -144 0 -151 -10 -6 -6 -64 -125 -130 -263 -65 -139 -126 -262 -135
-275 -14 -21 -18 -22 -32 -9 -8 8 -71 139 -140 290 l-124 275 -63 1 c-35 0
-102 -2 -149 -5z"/>
<path d="M6938 2065 c-3 -3 -130 -6 -281 -6 -179 1 -277 -3 -279 -9 -2 -6 1
-59 6 -118 5 -59 9 -298 10 -532 l1 -424 40 -8 c22 -5 91 -7 155 -6 l115 3 -4
200 c-3 177 -1 202 13 214 13 11 55 13 211 8 l194 -5 7 44 c8 54 1 204 -10
223 -7 10 -47 11 -196 5 l-187 -7 -17 24 c-22 32 -21 112 1 135 15 15 33 16
153 11 74 -4 175 -10 224 -13 l89 -7 -8 69 c-4 38 -10 98 -14 134 l-6 65 -106
3 c-58 1 -108 0 -111 -3z"/>
<path d="M6015 2020 c-100 -50 -101 -185 -2 -231 52 -23 104 -24 157 -3 48 19
70 55 70 114 0 55 -26 96 -75 120 -52 25 -99 25 -150 0z"/>
<path d="M5617 1765 c-99 -27 -199 -107 -227 -179 -15 -41 -12 -123 6 -159 9
-18 38 -57 64 -87 77 -90 85 -116 47 -154 -17 -17 -45 -27 -95 -36 -40 -6 -72
-14 -72 -17 0 -15 67 -128 95 -160 l32 -38 58 12 c118 25 234 98 266 166 25
57 25 146 -1 197 -11 22 -40 62 -65 90 -24 27 -49 59 -55 71 -29 53 28 109
113 109 32 0 47 4 47 13 0 7 -22 51 -48 97 -45 79 -51 85 -83 87 -19 1 -56 -4
-82 -12z"/>
<path d="M4475 1676 c-36 -86 -41 -409 -9 -540 26 -105 91 -162 200 -173 70
-7 128 10 214 63 l69 42 6 -36 c4 -20 7 -44 8 -52 2 -12 25 -15 137 -15 l135
0 0 370 0 370 -136 3 -136 3 -6 -221 c-6 -242 -8 -253 -70 -290 -63 -39 -127
-13 -147 58 -11 42 -12 300 -1 378 4 28 5 56 3 62 -2 8 -43 12 -128 12 l-125
0 -14 -34z"/>
<path d="M5936 1700 c-2 -3 0 -36 5 -75 4 -38 8 -199 8 -356 1 -252 3 -288 17
-293 22 -9 237 -7 250 2 7 5 11 112 12 322 1 173 3 335 5 359 l2 44 -148 1
c-82 1 -150 -1 -151 -4z"/>
<path d="M7247 1703 c-4 -3 -7 -82 -7 -175 0 -198 -7 -178 134 -378 53 -74 96
-141 96 -148 1 -41 -94 -82 -190 -82 -26 0 -40 -5 -40 -13 0 -13 59 -162 73
-184 9 -14 206 -17 259 -4 20 4 52 38 113 116 92 118 251 352 306 450 l34 60
0 155 c0 85 -3 167 -8 183 -7 26 -10 27 -75 27 -37 0 -97 -3 -134 -6 l-67 -7
1 -143 c0 -141 -1 -145 -32 -213 -18 -38 -43 -80 -56 -92 -30 -28 -42 -19 -94
75 l-40 71 0 151 c0 149 0 152 -22 158 -31 8 -243 8 -251 -1z"/>
<path d="M8104 1695 c-4 -8 -4 -86 -2 -172 3 -142 6 -163 27 -203 30 -57 170
-263 214 -314 l34 -39 106 -1 c92 0 110 3 134 20 33 25 147 183 205 284 l43
75 3 155 c2 92 -1 166 -7 183 l-11 27 -125 0 c-93 0 -125 -3 -125 -12 -1 -7
-1 -75 0 -151 l1 -137 -36 -69 c-20 -38 -45 -77 -56 -87 -18 -16 -20 -16 -38
0 -11 10 -35 48 -55 86 l-36 68 0 145 c0 171 14 157 -158 157 -91 0 -114 -3
-118 -15z"/>
</g>
</svg>
